<?xml version="1.0" encoding="iso-8859-1"?>
<!-- Generator: Adobe Illustrator 19.0.0, SVG Export Plug-In . SVG Version: 6.00 Build 0)  -->
<svg version="1.1" id="Capa_1" xmlns="http://www.w3.org/2000/svg" xmlns:xlink="http://www.w3.org/1999/xlink" x="0px" y="0px"
	 viewBox="0 0 502.642 502.642" style="enable-background:new 0 0 502.642 502.642;" xml:space="preserve">
<g>
	<g>
		<g>
			<path style="fill:#010002;" d="M84.924,362.821l-2.653-51.058c-0.82-16.502-3.602-29.164-8.369-37.921
				c-4.724-8.758-12.317-16.351-22.736-22.649c11.066-7.01,18.508-14.345,22.563-22.002c4.055-7.636,6.644-15.704,7.744-24.073
				c1.122-8.434,2.006-26.661,2.739-54.725c0.237-10.138,2.071-16.955,5.35-20.492c3.322-3.516,13.482-5.242,30.48-5.242V82.746
				h-9.319c-16.329,0-28.905,1.445-37.77,4.314c-8.909,2.869-16.157,7.528-21.786,13.935c-5.608,6.428-9.189,14.431-10.591,23.922
				c-1.488,9.513-2.222,24.159-2.222,43.897c0,25.907-3.192,42.624-9.621,50.023c-6.45,7.399-15.984,11.195-28.732,11.303v42.106
				c12.964,0.453,21.786,3.473,26.489,9.017c4.638,5.565,7.787,11.67,9.448,18.357c1.618,6.687,2.416,21.959,2.416,45.816
				c0,21.614,2.265,37.317,6.86,47.024c4.53,9.75,11.907,16.717,22.067,21.032c10.181,4.206,24.634,6.407,43.379,6.407h9.103
				v-42.128c-14.258,0-23.34-1.273-27.33-3.753C88.483,371.449,85.981,367.739,84.924,362.821z"/>
			<path style="fill:#010002;" d="M502.621,272.245v-42.149c-12.727-0.475-21.377-3.365-26.014-8.671
				c-4.595-5.306-7.787-11.195-9.599-17.58c-1.833-6.428-2.74-22.045-2.74-46.809c0-21.592-2.243-37.253-6.816-46.938
				c-4.551-9.685-11.95-16.674-22.132-20.945c-10.203-4.228-24.634-6.407-43.379-6.407h-9.34v41.847
				c14.733,0,23.836,1.035,27.416,3.149c3.538,2.114,5.803,4.616,6.73,7.55c0.949,2.912,1.747,14.431,2.459,34.6
				c0.712,20.19,1.769,33.952,3.149,41.373c1.381,7.442,4.077,14.323,8.068,20.6c3.947,6.342,10.98,12.727,21.01,19.306
				c-9.448,5.479-16.394,11.929-20.773,19.306c-4.4,7.377-7.312,15.294-8.801,23.814c-1.424,8.499-2.502,27.697-3.192,57.637
				c-0.216,10.419-2.222,17.343-5.867,20.708c-3.667,3.408-13.633,5.091-29.919,5.091v42.128h9.275
				c16.308,0,28.862-1.467,37.77-4.314c8.866-2.891,16.157-7.528,21.765-13.956c5.587-6.428,9.103-14.431,10.462-23.922
				c1.467-9.556,2.136-24.267,2.136-44.155c0-25.777,3.214-42.387,9.664-49.85c6.385-7.507,15.962-11.282,28.689-11.411
				C502.642,272.245,502.621,272.245,502.621,272.245z"/>
			<path style="fill:#010002;" d="M398.11,250.631c-0.992-0.086-1.855-0.302-2.783-0.41c0.884-0.173,1.747-0.367,2.74-0.431h-5.652
				c-40.251-4.81-75.649-18.939-101.879-38.849c-19.91-26.209-34.039-61.585-38.827-101.9v-5.587
				c-0.086,0.949-0.367,1.855-0.431,2.783c-0.129-0.928-0.367-1.834-0.453-2.783v5.587c-4.789,40.316-18.918,75.67-38.827,101.9
				c-26.122,19.888-61.498,34.039-101.793,38.849h-5.587c0.992,0.065,1.855,0.28,2.783,0.431c-0.928,0.108-1.79,0.302-2.783,0.388
				h5.608c40.273,4.81,75.649,18.939,101.857,38.827c19.91,26.252,34.039,61.606,38.827,101.922v5.587
				c0.086-0.949,0.324-1.855,0.453-2.804c0.086,0.928,0.345,1.833,0.431,2.804v-5.587c4.789-40.294,18.918-75.67,38.827-101.922
				c26.23-19.888,61.585-34.017,101.879-38.784L398.11,250.631L398.11,250.631z M262.948,261.891
				c-5.436,5.112-9.448,11.562-11.605,18.918c-2.157-7.356-6.212-13.805-11.67-18.918c-5.091-5.457-11.562-9.513-19.004-11.67
				c7.442-2.157,13.913-6.234,19.004-11.691c5.457-5.134,9.513-11.605,11.67-18.918c2.157,7.334,6.169,13.805,11.605,18.918
				c5.112,5.457,11.605,9.534,18.961,11.691C274.553,252.378,268.06,256.434,262.948,261.891z"/>
		</g>
	</g>
	<g>
	</g>
	<g>
	</g>
	<g>
	</g>
	<g>
	</g>
	<g>
	</g>
	<g>
	</g>
	<g>
	</g>
	<g>
	</g>
	<g>
	</g>
	<g>
	</g>
	<g>
	</g>
	<g>
	</g>
	<g>
	</g>
	<g>
	</g>
	<g>
	</g>
</g>
<g>
</g>
<g>
</g>
<g>
</g>
<g>
</g>
<g>
</g>
<g>
</g>
<g>
</g>
<g>
</g>
<g>
</g>
<g>
</g>
<g>
</g>
<g>
</g>
<g>
</g>
<g>
</g>
<g>
</g>
</svg>
